<?xml version="1.0" encoding="UTF-8" standalone="no"?>
<svg xmlns:dc="http://purl.org/dc/elements/1.1/" xmlns:cc="http://creativecommons.org/ns#" xmlns:rdf="http://www.w3.org/1999/02/22-rdf-syntax-ns#" xmlns:svg="http://www.w3.org/2000/svg" xmlns="http://www.w3.org/2000/svg" viewBox="0 0 321.53333 321.53333" height="321.53333" width="321.53333" xml:space="preserve" id="svg2" version="1.1">
  <metadata id="metadata8">
    <rdf:RDF>
      <cc:Work rdf:about="">
        <dc:format>image/svg+xml</dc:format>
        <dc:type rdf:resource="http://purl.org/dc/dcmitype/StillImage" />
      </cc:Work>
    </rdf:RDF>
  </metadata>
  <defs id="defs6" />
  <g transform="matrix(1.3333333,0,0,-1.3333333,0,321.53333)" id="g10">
    <g transform="scale(0.1)" id="g12">
      <path id="path14" style="fill:#211d1d;fill-opacity:1;fill-rule:nonzero;stroke:none" d="m 1354.31,1807.39 -55.74,11.06 16.79,-61.25 z" />
      <path id="path16" style="fill:#211d1d;fill-opacity:1;fill-rule:nonzero;stroke:none" d="m 1468.86,1766.79 -52.54,21.8 4.51,-63.4 z" />
      <path id="path18" style="fill:#211d1d;fill-opacity:1;fill-rule:nonzero;stroke:none" d="m 1525.95,1736.29 -7.97,-63.06 55.26,31.5 z" />
      <path id="path20" style="fill:#211d1d;fill-opacity:1;fill-rule:nonzero;stroke:none" d="m 1736.24,1526.05 -31.56,47.27 -31.5,-55.28 z" />
      <path id="path22" style="fill:#211d1d;fill-opacity:1;fill-rule:nonzero;stroke:none" d="m 1788.44,1416.4 -21.78,52.55 -41.63,-48.02 z" />
      <path id="path24" style="fill:#211d1d;fill-opacity:1;fill-rule:nonzero;stroke:none" d="m 1818.43,1298.65 -11.07,55.77 -50.19,-38.96 z" />
      <path id="path26" style="fill:#211d1d;fill-opacity:1;fill-rule:nonzero;stroke:none" d="m 1818.43,1112.86 -61.26,-16.81 50.19,-38.92 z" />
      <path id="path28" style="fill:#211d1d;fill-opacity:1;fill-rule:nonzero;stroke:none" d="m 1788.44,995.16 -63.41,-4.48 41.63,-48.071 z" />
      <path id="path30" style="fill:#211d1d;fill-opacity:1;fill-rule:nonzero;stroke:none" d="m 1704.68,838.191 31.56,47.297 -63.06,7.953 z" />
      <path id="path32" style="fill:#211d1d;fill-opacity:1;fill-rule:nonzero;stroke:none" d="m 1573.24,706.828 -55.26,31.492 7.97,-63.058 z" />
      <path id="path34" style="fill:#211d1d;fill-opacity:1;fill-rule:nonzero;stroke:none" d="m 1420.83,686.309 -4.51,-63.348 52.54,21.738 z" />
      <path id="path36" style="fill:#211d1d;fill-opacity:1;fill-rule:nonzero;stroke:none" d="m 1298.57,593.102 55.74,11.058 -38.95,50.168 z" />
      <path id="path38" style="fill:#211d1d;fill-opacity:1;fill-rule:nonzero;stroke:none" d="m 1057.09,604.16 55.72,-11.058 -16.83,61.226 z" />
      <path id="path40" style="fill:#211d1d;fill-opacity:1;fill-rule:nonzero;stroke:none" d="m 942.496,644.699 52.531,-21.738 -4.504,63.348 z" />
      <path id="path42" style="fill:#211d1d;fill-opacity:1;fill-rule:nonzero;stroke:none" d="m 885.453,675.262 7.93,63.058 -55.227,-31.492 z" />
      <path id="path44" style="fill:#211d1d;fill-opacity:1;fill-rule:nonzero;stroke:none" d="m 675.141,885.488 31.586,-47.297 31.472,55.25 z" />
      <path id="path46" style="fill:#211d1d;fill-opacity:1;fill-rule:nonzero;stroke:none" d="m 622.922,995.16 21.734,-52.551 41.621,48.071 z" />
      <path id="path48" style="fill:#211d1d;fill-opacity:1;fill-rule:nonzero;stroke:none" d="m 593.035,1112.86 11.07,-55.73 50.208,38.92 z" />
      <path id="path50" style="fill:#211d1d;fill-opacity:1;fill-rule:nonzero;stroke:none" d="m 593.035,1298.65 61.278,16.81 -50.208,38.96 z" />
      <path id="path52" style="fill:#211d1d;fill-opacity:1;fill-rule:nonzero;stroke:none" d="m 622.922,1416.37 63.355,4.5 -41.621,48.04 z" />
      <path id="path54" style="fill:#211d1d;fill-opacity:1;fill-rule:nonzero;stroke:none" d="m 706.727,1573.32 -31.586,-47.27 63.058,-8.01 z" />
      <path id="path56" style="fill:#211d1d;fill-opacity:1;fill-rule:nonzero;stroke:none" d="m 838.156,1704.73 55.227,-31.5 -7.93,63.06 z" />
      <path id="path58" style="fill:#211d1d;fill-opacity:1;fill-rule:nonzero;stroke:none" d="m 990.523,1725.19 4.504,63.4 -52.531,-21.8 z" />
      <path id="path60" style="fill:#211d1d;fill-opacity:1;fill-rule:nonzero;stroke:none" d="m 1112.81,1818.45 -55.72,-11.06 38.89,-50.19 z" />
      <path id="path62" style="fill:#211d1d;fill-opacity:1;fill-rule:nonzero;stroke:none" d="m 1687.02,788.75 -218.1,297.47 c 2.44,5.39 4.76,10.87 6.87,16.42 l 362.91,36.27 c -13.88,-133.18 -68.72,-254.148 -151.68,-350.16 z m -414.58,-217.398 36.41,364.277 c 5.56,2.133 11.04,4.441 16.43,6.922 L 1622.74,724.41 c -95.93,-83.5 -216.9,-138.851 -350.3,-153.058 z m -485.471,151.839 299.091,219.34 c 5.39,-2.492 10.9,-4.812 16.49,-6.941 l 36.42,-364.32 c -133.93,13.601 -255.579,68.511 -352.001,151.921 z m -217.231,416.039 365.758,-36.59 c 2.145,-5.57 4.453,-11.07 6.93,-16.52 L 723.063,787.02 c -83.918,96.351 -139.399,218.05 -153.325,352.21 z m 358.95,149.66 c -7.004,-23.36 -11.098,-47.98 -11.958,-73.42 H 194.188 Z m -205.625,335.72 219.371,-299.18 c -2.457,-5.39 -4.762,-10.89 -6.911,-16.49 l -365.566,-36.55 c 13.922,134.12 69.219,255.85 153.106,352.22 z M 1139,1840.47 1102.55,1475.9 c -5.59,-2.13 -11.07,-4.45 -16.46,-6.9 l -299.012,219.28 c 96.426,83.43 217.992,138.55 351.922,152.19 z M 1622.88,1687.23 1325.26,1469 c -5.4,2.45 -10.85,4.75 -16.41,6.86 L 1272.44,1840 c 133.4,-14.19 254.51,-69.29 350.44,-152.77 z m 215.97,-414.59 -363.08,36.32 c -2.12,5.56 -4.42,11.02 -6.88,16.39 l 218.1,297.44 c 83.03,-96 137.97,-216.94 151.86,-350.15 z M 1403.17,994.629 1567.68,830.121 1723.05,674.73 1344.71,952.18 c 21.25,11.679 40.88,26.011 58.46,42.449 z M 1196.03,916.84 V 194.191 l -73.47,734.598 c 23.39,-7.027 48.02,-11.117 73.47,-11.949 z M 994.535,1008.26 674.699,688.441 952.098,1066.72 c 11.679,-21.27 25.996,-40.88 42.437,-58.46 z m 13.705,408.67 -319.81,319.81 378.2,-277.42 c -21.25,-11.66 -40.85,-25.96 -58.39,-42.39 z m 207.08,77.73 v 722.66 l 73.49,-734.62 c -23.39,7.03 -48,11.12 -73.49,11.96 z m 201.47,-91.45 319.8,319.77 -277.4,-378.17 c -11.67,21.24 -25.97,40.85 -42.4,58.4 z m -413.54,-197.44 c 0,111.74 90.59,202.42 202.42,202.42 111.72,0 202.42,-90.68 202.42,-202.42 0,-111.78 -90.7,-202.41 -202.42,-202.41 -111.83,0 -202.42,90.63 -202.42,202.41 z m 479.38,-83.08 c 7.01,23.36 11.1,47.98 11.93,73.44 h 722.66 z m 928.83,73.48 -0.51,9.62 0.51,9.57 -436.76,43.69 c -12.51,182.94 -88.85,348.18 -206.88,474 l 58.99,80.48 -7.19,6.18 -6.2,7.22 -80.3,-58.9 c -125.82,118.07 -291.2,194.24 -474.17,206.75 l -43.66,436.73 -9.62,-0.47 -9.59,0.47 -43.66,-436.67 c -182.943,-12.55 -348.178,-88.87 -473.986,-206.9 l -80.45,58.99 -6.058,-7.07 -7.406,-6.33 58.867,-80.33 C 525.348,1607.4 449.168,1442.03 436.676,1259.05 L 0.988281,1215.47 H 0.929688 v -0.01 l -0.92578175,-0.1 0.43749975,-9.57 -0.43749975,-9.62 L 436.617,1152.54 c 12.516,-182.958 88.86,-348.231 206.91,-474.001 l -59.007,-80.449 7.21,-6.199 6.254,-7.262 80.274,58.84 C 804.055,525.449 969.449,449.25 1152.4,436.762 L 1196.08,0 1205.67,0.46875 1215.29,0 l 43.66,436.719 c 182.97,12.531 348.27,88.801 474.03,206.871 l 80.44,-58.961 6.36,7.422 7.03,6.039 -58.99,80.469 c 118.03,125.793 194.36,291.023 206.87,473.961 l 436.77,43.65" />
      <path id="path64" style="fill:#211d1d;fill-opacity:1;fill-rule:nonzero;stroke:none" d="m 1154.71,1204.36 c 0,27.36 22.22,49.59 49.6,49.59 27.36,0 49.57,-22.23 49.57,-49.59 0,-27.37 -22.21,-49.61 -49.57,-49.61 -27.38,0 -49.6,22.24 -49.6,49.61 z m 222.96,0 c 0,95.03 -77.01,172.05 -172,172.05 -95.03,0 -172.05,-77.02 -172.05,-172.05 0,-95.01 77.02,-172.01 172.05,-172.01 94.99,0 172,77 172,172.01" />
    </g>
  </g>
</svg>