<?xml version="1.0" encoding="UTF-8" standalone="no"?>
<svg xmlns:dc="http://purl.org/dc/elements/1.1/" xmlns:cc="http://creativecommons.org/ns#" xmlns:rdf="http://www.w3.org/1999/02/22-rdf-syntax-ns#" xmlns:svg="http://www.w3.org/2000/svg" xmlns="http://www.w3.org/2000/svg" viewBox="0 0 865.61334 250.13333" height="250.13333" width="865.61334" xml:space="preserve" id="svg2" version="1.1">
  <metadata id="metadata8">
    <rdf:RDF>
      <cc:Work rdf:about="">
        <dc:format>image/svg+xml</dc:format>
        <dc:type rdf:resource="http://purl.org/dc/dcmitype/StillImage" />
      </cc:Work>
    </rdf:RDF>
  </metadata>
  <defs id="defs6" />
  <g transform="matrix(1.3333333,0,0,-1.3333333,0,250.13333)" id="g10">
    <g transform="scale(0.1)" id="g12">
      <path id="path14" style="fill:#211d1d;fill-opacity:1;fill-rule:nonzero;stroke:none" d="m 1467.22,1406.05 -43.36,8.6 13.05,-47.65 z" />
      <path id="path16" style="fill:#211d1d;fill-opacity:1;fill-rule:nonzero;stroke:none" d="m 1556.34,1374.46 -40.88,16.96 3.5,-49.32 z" />
      <path id="path18" style="fill:#211d1d;fill-opacity:1;fill-rule:nonzero;stroke:none" d="m 1600.75,1350.73 -6.21,-49.05 42.99,24.51 z" />
      <path id="path20" style="fill:#211d1d;fill-opacity:1;fill-rule:nonzero;stroke:none" d="m 1764.34,1187.18 -24.55,36.78 -24.51,-43.01 z" />
      <path id="path22" style="fill:#211d1d;fill-opacity:1;fill-rule:nonzero;stroke:none" d="m 1804.96,1101.88 -16.96,40.88 -32.38,-37.36 z" />
      <path id="path24" style="fill:#211d1d;fill-opacity:1;fill-rule:nonzero;stroke:none" d="m 1828.28,1010.28 -8.62,43.38 -39.04,-30.3 z" />
      <path id="path26" style="fill:#211d1d;fill-opacity:1;fill-rule:nonzero;stroke:none" d="m 1828.28,865.738 -47.66,-13.078 39.04,-30.269 z" />
      <path id="path28" style="fill:#211d1d;fill-opacity:1;fill-rule:nonzero;stroke:none" d="m 1804.96,774.172 -49.34,-3.481 32.38,-37.382 z" />
      <path id="path30" style="fill:#211d1d;fill-opacity:1;fill-rule:nonzero;stroke:none" d="m 1764.34,688.859 -49.06,6.18 24.51,-42.98 z" />
      <path id="path32" style="fill:#211d1d;fill-opacity:1;fill-rule:nonzero;stroke:none" d="m 1637.53,549.879 -42.99,24.492 6.21,-49.051 z" />
      <path id="path34" style="fill:#211d1d;fill-opacity:1;fill-rule:nonzero;stroke:none" d="m 1518.96,533.91 -3.5,-49.289 40.88,16.918 z" />
      <path id="path36" style="fill:#211d1d;fill-opacity:1;fill-rule:nonzero;stroke:none" d="m 1423.86,461.391 43.36,8.597 -30.31,39.043 z" />
      <path id="path38" style="fill:#211d1d;fill-opacity:1;fill-rule:nonzero;stroke:none" d="m 1236,469.988 43.34,-8.597 -13.09,47.64 z" />
      <path id="path40" style="fill:#211d1d;fill-opacity:1;fill-rule:nonzero;stroke:none" d="m 1146.85,501.539 40.86,-16.918 -3.5,49.289 z" />
      <path id="path42" style="fill:#211d1d;fill-opacity:1;fill-rule:nonzero;stroke:none" d="m 1102.48,525.32 6.16,49.051 -42.96,-24.492 z" />
      <path id="path44" style="fill:#211d1d;fill-opacity:1;fill-rule:nonzero;stroke:none" d="m 938.863,688.859 24.575,-36.8 24.484,42.98 z" />
      <path id="path46" style="fill:#211d1d;fill-opacity:1;fill-rule:nonzero;stroke:none" d="m 898.242,774.172 16.903,-40.863 32.378,37.382 z" />
      <path id="path48" style="fill:#211d1d;fill-opacity:1;fill-rule:nonzero;stroke:none" d="m 874.988,865.738 8.61,-43.347 39.062,30.269 z" />
      <path id="path50" style="fill:#211d1d;fill-opacity:1;fill-rule:nonzero;stroke:none" d="m 874.988,1010.28 47.672,13.08 -39.062,30.3 z" />
      <path id="path52" style="fill:#211d1d;fill-opacity:1;fill-rule:nonzero;stroke:none" d="m 898.242,1101.85 49.281,3.51 -32.378,37.37 z" />
      <path id="path54" style="fill:#211d1d;fill-opacity:1;fill-rule:nonzero;stroke:none" d="m 938.863,1187.18 49.059,-6.23 -24.484,43.01 z" />
      <path id="path56" style="fill:#211d1d;fill-opacity:1;fill-rule:nonzero;stroke:none" d="m 1065.68,1326.19 42.96,-24.51 -6.16,49.05 z" />
      <path id="path58" style="fill:#211d1d;fill-opacity:1;fill-rule:nonzero;stroke:none" d="m 1184.21,1342.1 3.5,49.32 -40.86,-16.96 z" />
      <path id="path60" style="fill:#211d1d;fill-opacity:1;fill-rule:nonzero;stroke:none" d="m 1279.34,1414.65 -43.34,-8.6 30.25,-39.05 z" />
      <path id="path62" style="fill:#211d1d;fill-opacity:1;fill-rule:nonzero;stroke:none" d="m 1726.05,613.602 -169.67,231.41 c 1.9,4.187 3.7,8.457 5.34,12.789 l 282.33,28.211 c -10.8,-103.614 -53.46,-197.711 -118,-272.41 z M 1459.76,740.75 c 16.53,9.078 31.8,20.219 45.47,33.012 l 127.98,-127.973 120.87,-120.891 z m -56.23,-296.27 28.33,283.391 c 4.32,1.649 8.58,3.449 12.78,5.379 l 231.4,-169.699 C 1601.42,498.59 1507.31,455.531 1403.53,444.48 Z m -51.94,336.071 c -87,0 -157.47,70.519 -157.47,157.472 0,86.927 70.47,157.467 157.47,157.467 86.91,0 157.47,-70.54 157.47,-157.467 0,-86.953 -70.56,-157.472 -157.47,-157.472 z m -7.5,-629.492 -57.16,571.48 c 18.2,-5.469 37.36,-8.641 57.16,-9.289 z m -318.23,411.543 232.68,170.628 c 4.19,-1.941 8.48,-3.742 12.82,-5.39 l 28.34,-283.43 c -104.2,10.578 -198.83,53.301 -273.84,118.192 z m -87.34,-27.032 215.8,294.282 c 9.08,-16.551 20.23,-31.813 33.01,-45.493 z m -81.657,350.684 284.547,-28.453 c 1.66,-4.352 3.46,-8.629 5.39,-12.86 L 976.145,612.25 C 910.859,687.211 867.699,781.891 856.863,886.254 Z m 0.172,103.594 c 10.832,104.342 53.848,199.032 119.11,274.002 L 1146.8,1031.11 c -1.91,-4.2 -3.7,-8.48 -5.37,-12.83 z m 386.385,145.422 c -16.53,-9.07 -31.78,-20.2 -45.43,-32.98 l -248.791,248.79 z m 56.3,296.51 -28.36,-283.61 c -4.34,-1.66 -8.61,-3.46 -12.8,-5.37 l -232.62,170.59 c 75.02,64.9 169.59,107.78 273.78,118.39 z m 59.38,293.18 57.16,-571.5 c -18.19,5.47 -37.33,8.65 -57.16,9.3 z m 317.05,-412.39 -231.53,-169.77 c -4.2,1.91 -8.44,3.7 -12.76,5.34 l -28.33,283.28 c 103.78,-11.04 197.99,-53.91 272.62,-118.85 z m 88.46,27.82 -215.8,-294.2 c -9.08,16.52 -20.2,31.77 -32.98,45.43 z m 79.56,-350.351 -282.47,28.261 c -1.64,4.32 -3.43,8.57 -5.34,12.75 l 169.67,231.4 c 64.59,-74.7 107.33,-168.77 118.14,-272.411 z m -277.12,-116.66 c 5.45,18.18 8.62,37.34 9.28,57.137 h 476.97 c 0.06,13.035 0.63,25.832 1.58,38.449 l -105.03,10.508 c -9.73,142.317 -69.12,270.867 -160.94,368.737 l 45.89,62.61 -5.6,4.81 -4.82,5.62 -62.47,-45.82 c -97.87,91.85 -226.53,151.11 -368.88,160.84 l -33.96,339.75 -7.48,-0.37 -7.46,0.37 -33.97,-339.71 c -142.32,-9.76 -270.87,-69.13 -368.734,-160.95 l -62.582,45.89 -4.719,-5.5 -5.762,-4.93 45.797,-62.49 C 822.328,1250.47 763.066,1121.82 753.352,979.473 l -154.286,-15.434 -6.464,-15.68 543.508,54.321 c -5.45,-18.168 -8.63,-37.325 -9.3,-57.11 H 591.449 l -12.98,-31.492 174.836,-17.473 C 763.043,754.27 822.434,625.711 914.273,527.871 l -45.91,-62.59 5.614,-4.832 4.867,-5.648 62.445,45.789 C 1039.15,408.762 1167.82,349.5 1310.15,339.781 l 33.98,-339.7927188 7.46,0.3828128 7.48,-0.3828128 L 1393.03,339.75 c 142.35,9.75 270.94,69.07 368.77,160.93 l 62.58,-45.879 4.96,5.769 5.46,4.711 -45.89,62.598 c 91.82,97.859 151.19,226.391 160.93,368.707 l 103.84,10.383 c -0.19,4.969 -0.28,10 -0.33,15.039 l -486.3,-48.629" />
      <path id="path64" style="fill:#211d1d;fill-opacity:1;fill-rule:nonzero;stroke:none" d="m 1350.53,898.336 c -21.31,0 -38.59,17.293 -38.59,38.586 0,21.281 17.28,38.578 38.59,38.578 21.28,0 38.56,-17.297 38.56,-38.578 0,-21.293 -17.28,-38.586 -38.56,-38.586 z m 1.06,172.434 c -73.93,0 -133.85,-59.92 -133.85,-133.848 0,-73.91 59.92,-133.813 133.85,-133.813 73.89,0 133.8,59.903 133.8,133.813 0,73.928 -59.91,133.848 -133.8,133.848" />
      <path id="path66" style="fill:#211d1d;fill-opacity:1;fill-rule:nonzero;stroke:none" d="m 591.449,945.57 1.153,2.789 -27.895,-2.789 z" />
      <path id="path68" style="fill:#211d1d;fill-opacity:1;fill-rule:nonzero;stroke:none" d="m 413.984,938.035 -0.347,7.449 0.722,0.071 v 0.015 h 0.051 l 184.656,18.469 169.875,411.981 H 475.238 l -89.472,-276.2 -81.043,276.2 H 0 l 383.176,-935.571 195.293,473.629 -164.832,16.469 0.347,7.488" />
      <path id="path70" style="fill:#211d1d;fill-opacity:1;fill-rule:nonzero;stroke:none" d="m 2705.47,920.531 c -6.06,-62.242 -25.61,-110.011 -58.67,-143.293 -33.07,-33.277 -77.48,-49.918 -133.24,-49.918 -54.9,0 -100.28,18.91 -136.15,56.731 -35.89,37.82 -53.82,85.679 -53.82,143.609 0,60.078 18.26,109.57 54.79,148.48 36.52,38.9 82.88,58.35 139.07,58.35 88.18,0 148.04,-48.42 179.6,-145.236 l 282.03,18.806 c -25.08,108.92 -67.87,193.85 -128.38,254.8 -87.31,88.17 -196.23,132.26 -326.76,132.26 -132.7,0 -244.33,-44.96 -334.88,-134.85 -80.92,-80.35 -125.57,-177.49 -134.18,-291.305 l 234.74,-23.481 -0.39,-7.449 0.39,-7.488 -235.94,-23.578 c 4.47,-121.86 48.69,-224.66 132.79,-308.34 88.82,-88.399 199.15,-132.59 330.98,-132.59 129.67,0 234.81,38.902 315.42,116.699 80.61,77.801 130,188.024 148.15,330.657 l -275.55,7.136" />
      <path id="path72" style="fill:#211d1d;fill-opacity:1;fill-rule:nonzero;stroke:none" d="m 2053.35,922.008 85.17,8.508 h -85.22 c -0.01,-0.957 -0.07,-1.891 -0.07,-2.856 0,-1.902 0.1,-3.758 0.12,-5.652" />
      <path id="path74" style="fill:#211d1d;fill-opacity:1;fill-rule:nonzero;stroke:none" d="M 3396.44,932.203 V 698.789 h -75.86 V 488.078 h -263.23 v 562.762 c 0,108.93 29.71,193.54 89.15,253.83 59.41,60.31 142.97,90.45 250.58,90.45 103.74,0 180.45,-27.34 230.16,-82.02 49.71,-54.68 74.57,-139.06 74.57,-253.17 V 488.078 h -263.24 v 554.342 c 0,34.58 -4.1,58.56 -12.31,71.97 -8.22,13.39 -22.91,20.1 -44.1,20.1 -41.05,0 -61.58,-30.7 -61.58,-92.07 V 932.203 h 75.86" />
      <path id="path76" style="fill:#211d1d;fill-opacity:1;fill-rule:nonzero;stroke:none" d="M 4360.36,479.012 C 4342.62,375.27 4282.76,296.391 4180.76,242.359 L 4067.94,358.41 c 37.17,38.899 58.57,78.891 64.19,119.942 -107.19,25.07 -193.1,78.558 -257.71,160.468 -64.63,81.91 -96.93,178.192 -96.93,288.84 0,131.83 45.27,242.7 135.83,332.61 90.54,89.89 202.17,134.85 334.87,134.85 130.53,0 239.45,-44.09 326.77,-132.26 60.5,-60.95 103.3,-145.88 128.37,-254.8 l -282.04,-18.806 c -31.55,96.816 -91.41,145.236 -179.59,145.236 -56.19,0 -102.54,-19.45 -139.07,-58.35 -36.53,-38.91 -54.78,-88.402 -54.78,-148.48 0,-57.93 17.93,-105.789 53.82,-143.609 35.86,-37.821 81.25,-56.731 136.15,-56.731 55.75,0 100.16,16.641 133.23,49.918 33.07,33.282 52.62,81.051 58.67,143.293 l 275.55,-7.136 C 4674.58,672.641 4559.6,527.852 4360.36,479.012" />
      <path id="path78" style="fill:#211d1d;fill-opacity:1;fill-rule:nonzero;stroke:none" d="m 5209.04,1618.8 h 114.11 c -2.17,-53.6 -13.19,-95.85 -33.07,-126.75 -19.88,-30.91 -45.82,-46.36 -77.8,-46.36 -20.32,0 -48.62,10.15 -84.93,30.48 -16.86,9.5 -28.75,14.26 -35.67,14.26 -14.25,0 -22.68,-13.19 -25.28,-39.55 h -121.24 c 10.8,115.41 52.3,173.11 124.48,173.11 19.88,0 42.15,-6.71 66.78,-20.1 l 25.94,-13.61 c 9.94,-5.63 18.58,-8.44 25.94,-8.44 14.25,0 21.39,9.3 21.39,27.88 0,2.16 -0.22,5.19 -0.65,9.08 z M 5150.69,932.203 V 698.789 h -75.86 V 488.078 h -263.22 v 562.762 c 0,108.93 29.7,193.54 89.14,253.83 59.42,60.31 142.97,90.45 250.58,90.45 103.74,0 180.46,-27.34 230.17,-82.02 49.7,-54.68 74.56,-139.06 74.56,-253.17 V 488.078 h -263.23 v 554.342 c 0,34.58 -4.11,58.56 -12.32,71.97 -8.21,13.39 -22.91,20.1 -44.09,20.1 -41.06,0 -61.59,-30.7 -61.59,-92.07 V 932.203 h 75.86" />
      <path id="path80" style="fill:#211d1d;fill-opacity:1;fill-rule:nonzero;stroke:none" d="m 6027.26,1134.49 c -54.03,0 -100.07,-19.9 -138.09,-59.65 -38.05,-39.78 -57.07,-87.754 -57.07,-143.938 0,-56.191 19.14,-104.172 57.39,-143.933 38.25,-39.77 84.17,-59.649 137.77,-59.649 54.46,0 100.6,19.77 138.42,59.321 37.82,39.558 56.73,87.629 56.73,144.261 0,56.621 -18.91,104.708 -56.73,144.258 -37.82,39.55 -83.96,59.33 -138.42,59.33 z m 7.77,260.63 c 125.36,0 232.87,-45.6 322.56,-136.8 89.69,-91.21 134.53,-200.34 134.53,-327.418 0,-129.254 -45.17,-239.023 -135.5,-329.363 -90.35,-90.34 -200.13,-135.5 -329.36,-135.5 -128.38,0 -237.95,45.383 -328.71,136.152 -90.77,90.77 -136.16,200.34 -136.16,328.711 0,129.668 45.71,239.458 137.13,329.368 91.41,89.89 203.26,134.85 335.51,134.85" />
    </g>
  </g>
</svg>